<svg xmlns="http://www.w3.org/2000/svg" viewBox="0 0 400 400" width="400" height="400">
  <rect width="400" height="400" fill="#F1ECE0"/>
  <!-- Hanger -->
  <path d="M200 100 L200 80 A14 14 0 0 1 226 80" fill="none" stroke="#94A3B8" stroke-width="3"/>
  <line x1="120" y1="120" x2="280" y2="120" stroke="#94A3B8" stroke-width="3"/>
  <!-- Shirt body -->
  <path d="M120 120 L80 160 L100 200 L140 180 L140 320 L260 320 L260 180 L300 200 L320 160 L280 120 L260 110 L240 130 Q200 145 160 130 L140 110 Z"
        fill="#E8DCC4" stroke="#A08C6A" stroke-width="2"/>
  <!-- Buttons -->
  <circle cx="200" cy="200" r="3" fill="#A08C6A"/>
  <circle cx="200" cy="230" r="3" fill="#A08C6A"/>
  <circle cx="200" cy="260" r="3" fill="#A08C6A"/>
  <circle cx="200" cy="290" r="3" fill="#A08C6A"/>
</svg>
